<?xml version="1.0" encoding="utf-8"?>
<!-- Svg Vector Icons : http://www.onlinewebfonts.com/icon -->
<!DOCTYPE svg PUBLIC "-//W3C//DTD SVG 1.1//EN" "http://www.w3.org/Graphics/SVG/1.1/DTD/svg11.dtd">
<svg version="1.1" xmlns="http://www.w3.org/2000/svg" xmlns:xlink="http://www.w3.org/1999/xlink" x="0px" y="0px" viewBox="0 0 1000 1000" enable-background="new 0 0 1000 1000" xml:space="preserve">
<metadata> Svg Vector Icons : http://www.onlinewebfonts.com/icon </metadata>
<g><g transform="translate(0.000000,511.000000) scale(0.100000,-0.100000)"><path d="M1291.4,4629.4c-173.9-55.3-310.2-175.8-387.3-345.8c-41.5-86.9-43.5-126.5-49.4-746.9l-5.9-657.9H657.2c-104.7,0-227.2-9.9-270.7-21.7c-96.8-27.7-199.6-100.8-249-183.7C102,2614.1,100,2523.2,100-908.8v-3522.9h1165.7h1165.7v1059v1059l57.3,57.3l57.3,57.3h705.4h705.4l57.3-57.3l57.3-57.3v-1059v-1059h1165.7h1165.7l-4,3542.6l-5.9,3540.6l-45.4,63.2c-79,110.6-199.6,154.1-462.3,160l-231.2,7.9l-5.9,654c-5.9,636.2-7.9,659.9-51.4,754.8c-59.3,128.4-181.8,252.9-308.2,310.2l-100.8,45.4l-1906.6,4C1751.8,4653.1,1358.6,4649.2,1291.4,4629.4z M2781.2,4062.4c248.9-120.5,318.1-438.6,140.3-642.1c-156.1-175.8-414.9-205.5-606.6-65.2c-106.7,75.1-160,185.7-160,322.1c0,132.4,17.8,183.8,102.7,278.6C2384,4101.9,2607.3,4147.3,2781.2,4062.4z M1463.3,3935.9v-148.2h148.2h148.2v148.2v148.2h108.7H1977v-405v-405h-108.7h-108.7v158.1v160l-142.3-5.9l-144.2-5.9l-5.9-152.1l-5.9-154.1h-106.7H1246v405v405h108.7h108.7V3935.9z M3814.5,3985.3v-98.8H3696h-118.5v-306.3V3272l-112.6,5.9l-114.6,5.9l-5.9,302.3l-5.9,300.3h-116.6h-118.5v98.8v98.8h355.6h355.6V3985.3z M4620.6,3991.2l-5.9-94.8l-211.4-5.9c-211.4-5.9-213.4-5.9-213.4-53.4c0-47.4,4-47.4,193.6-53.3l191.7-5.9l5.9-92.9l5.9-94.8h-197.6h-199.6v-59.3v-59.3h217.3h217.3v-98.8V3274h-326h-326v405v405h328h326L4620.6,3991.2z M5019.8,3787.7v-296.4h136.3c75.1,0,164-5.9,197.6-11.9c59.3-11.9,61.3-17.8,61.3-110.6V3272l-310.2,5.9l-312.2,5.9l-5.9,401.1l-4,399.1h118.5h118.5V3787.7z M1911.8,2009.5c100.8-67.2,108.7-108.7,100.8-656l-5.9-509.8l-65.2-63.2l-63.2-65.2l-472.2-5.9c-539.4-7.9-614.5,3.9-673.8,100.8c-35.6,59.3-39.5,102.7-39.5,573c0,563.1,4,582.9,128.4,638.2C910.1,2060.9,1848.6,2051,1911.8,2009.5z M3784.9,2021.4c120.5-51.4,128.4-88.9,128.4-644.1c0-539.4-5.9-576.9-110.6-632.3c-43.5-23.7-154.1-29.6-565.1-29.6h-513.7l-67.2,73.1l-67.2,75.1v509.8c0,444.6,4,515.7,33.6,557.2c75.1,110.6,98.8,114.6,634.2,116.6C3613,2049,3731.5,2043.1,3784.9,2021.4z M5679.7,2021.4c128.4-53.3,130.4-61.3,130.4-650V839.8l-55.3-55.3c-77.1-75.1-146.2-83-665.9-75.1c-626.3,7.9-602.6-17.8-602.6,671.8c0,689.6-21.7,667.8,667.8,667.8C5501.9,2049,5630.3,2043.1,5679.7,2021.4z M1886.1,33.7c27.7-9.9,69.2-47.4,90.9-83c37.5-61.2,39.5-100.8,39.5-559.1c0-458.4-2-497.9-39.5-559.2c-21.7-35.6-63.2-73.1-90.9-83c-27.7-11.9-274.6-19.7-555.2-19.7H827.1l-67.2,67.2l-67.2,67.2v527.6v527.5l67.2,67.2l67.2,67.2h503.8C1611.5,53.5,1858.5,45.6,1886.1,33.7z M3846.1-13.7l67.2-67.2v-527.5V-1136l-67.2-67.2l-67.2-67.2h-525.6h-525.6l-63.2,57.3l-65.2,57.3l-5.9,521.6c-4,492-2,523.6,35.6,584.8c21.7,35.6,59.3,73.1,85,83c23.7,9.9,272.7,17.8,555.2,17.8l509.8,2L3846.1-13.7z M5697.5,31.7c110.7-57.3,112.6-63.2,112.6-640.1c0-476.2-4-537.4-35.6-575c-65.2-81-100.8-86.9-616.5-86.9c-555.2,0-592.7,7.9-644.1,128.4c-35.6,86.9-39.5,956.3-5.9,1055.1c13.8,35.6,51.4,81,85,102.7c55.3,33.6,104.7,37.5,561.1,37.5C5484.1,53.5,5669.8,45.6,5697.5,31.7z M1941.5-1999.4l65.2-57.3l5.9-505.8c4-424.8,0-515.7-25.7-571c-55.3-118.6-71.1-122.5-592.7-128.4c-521.6-7.9-596.7,2-659.9,92.9c-39.5,55.3-41.5,85-41.5,565.1c0,531.5,7.9,590.7,92.9,640.1c21.7,11.9,241,21.8,563.1,21.8h529.5L1941.5-1999.4z M5752.8-1999.4l57.3-57.3v-531.5c0-458.4-4-537.4-31.6-576.9c-63.2-88.9-130.4-100.8-620.4-100.8c-693.5,0-659.9-31.6-667.8,620.4c-7.9,517.7,3.9,596.7,88.9,661.9c47.4,39.5,75.1,41.5,582.9,41.5h533.5L5752.8-1999.4z"/><path d="M2510.5,3884.5c-79-31.6-118.5-96.8-118.5-197.6c0-114.6,53.4-189.7,150.2-207.5c177.8-33.6,300.3,142.3,215.4,308.2c-29.6,57.3-120.5,120.5-171.9,116.6C2571.7,3904.3,2538.1,3894.4,2510.5,3884.5z"/><path d="M7191.2-195.5c-154.1-53.3-276.6-160-353.7-312.2L6768.3-644l-5.9-1892.8l-4-1894.8h1570.8H9900l-4,1902.7l-5.9,1900.7l-55.3,112.6c-63.2,128.4-175.9,239.1-308.2,300.3c-88.9,41.5-114.6,41.5-1167.7,45.5C7428.3-165.9,7270.2-169.8,7191.2-195.5z M8070.4-1114.2c51.4-59.3,51.4-61.3,51.4-424.8c0-379.3-15.8-460.4-88.9-490c-17.8-5.9-209.4-11.8-426.8-11.8c-529.5,0-492-37.6-492,493.9c0,533.5-39.5,493.9,501.9,493.9h403L8070.4-1114.2z M9495-1102.4c49.4-47.4,49.4-49.4,49.4-440.6c0-367.5-2-397.1-41.5-446.5l-39.5-51.4h-409c-541.4,0-497.9-43.5-497.9,492c0,539.4-43.5,495.9,488,495.9C9445.6-1053,9447.5-1053,9495-1102.4z M8011.1-2562.5c102.7-43.5,114.6-96.8,106.7-513.7l-5.9-371.4l-55.3-47.4c-55.3-47.4-61.3-47.4-450.5-47.4h-395.2l-47.4,51.4c-49.4,53.3-49.4,57.3-49.4,442.6c0,361.6,2,393.2,39.5,440.6c51.4,65.2,65.2,67.2,460.4,71.1C7855-2534.9,7963.7-2542.8,8011.1-2562.5z M9496.9-2600c47.4-55.3,47.4-61.3,47.4-450.5c0-529.5,37.5-492-490-492c-367.5,0-397.1,2-446.5,41.5l-51.4,39.5v403.1c0,221.3,5.9,416.9,11.8,434.7c29.6,75.1,118.5,88.9,507.8,83l373.4-4L9496.9-2600z"/><path d="M3043.9-3493.1v-938.5h207.5h207.5v938.5v938.5h-207.5h-207.5V-3493.1z"/></g></g>
</svg>